<svg xmlns="http://www.w3.org/2000/svg" viewBox="0 0 800 450">
  <defs>
    <linearGradient id="bg9" x1="0%" y1="0%" x2="100%" y2="100%">
      <stop offset="0%" style="stop-color:#1e293b"/>
      <stop offset="100%" style="stop-color:#0f172a"/>
    </linearGradient>
    <linearGradient id="accent" x1="0%" y1="0%" x2="100%" y2="100%">
      <stop offset="0%" style="stop-color:#f59e0b"/>
      <stop offset="100%" style="stop-color:#d97706"/>
    </linearGradient>
  </defs>
  
  <!-- Background -->
  <rect width="800" height="450" fill="url(#bg9)"/>
  
  <!-- Header -->
  <rect x="0" y="0" width="800" height="60" fill="#0f172a"/>
  <text x="30" y="38" font-family="system-ui" font-size="20" font-weight="bold" fill="white"><â Super Admin - Empresas</text>
  <rect x="650" y="15" width="120" height="30" rx="15" fill="url(#accent)"/>
  <text x="710" y="36" font-family="system-ui" font-size="12" font-weight="600" fill="#1e293b" text-anchor="middle">=Q Admin</text>
  
  <!-- Stats cards -->
  <g transform="translate(30, 80)">
    <rect width="175" height="80" rx="12" fill="#1e293b" stroke="#334155" stroke-width="1"/>
    <text x="20" y="30" font-family="system-ui" font-size="11" fill="#94a3b8">Empresas Ativas</text>
    <text x="20" y="60" font-family="system-ui" font-size="28" font-weight="bold" fill="#f59e0b">24</text>
    
    <g transform="translate(195, 0)">
      <rect width="175" height="80" rx="12" fill="#1e293b" stroke="#334155" stroke-width="1"/>
      <text x="20" y="30" font-family="system-ui" font-size="11" fill="#94a3b8">Total Usuários</text>
      <text x="20" y="60" font-family="system-ui" font-size="28" font-weight="bold" fill="#22c55e">12.5K</text>
    </g>
    
    <g transform="translate(390, 0)">
      <rect width="175" height="80" rx="12" fill="#1e293b" stroke="#334155" stroke-width="1"/>
      <text x="20" y="30" font-family="system-ui" font-size="11" fill="#94a3b8">Pedidos (mês)</text>
      <text x="20" y="60" font-family="system-ui" font-size="28" font-weight="bold" fill="#3b82f6">3.2K</text>
    </g>
    
    <g transform="translate(585, 0)">
      <rect width="175" height="80" rx="12" fill="#1e293b" stroke="#334155" stroke-width="1"/>
      <text x="20" y="30" font-family="system-ui" font-size="11" fill="#94a3b8">GMV (mês)</text>
      <text x="20" y="60" font-family="system-ui" font-size="28" font-weight="bold" fill="#a855f7">R$ 1.2M</text>
    </g>
  </g>
  
  <!-- Companies table -->
  <g transform="translate(30, 180)">
    <rect width="740" height="35" rx="6" fill="#334155"/>
    <text x="25" y="23" font-family="system-ui" font-size="11" font-weight="600" fill="#e2e8f0">Empresa</text>
    <text x="250" y="23" font-family="system-ui" font-size="11" font-weight="600" fill="#e2e8f0">CNPJ</text>
    <text x="400" y="23" font-family="system-ui" font-size="11" font-weight="600" fill="#e2e8f0">Usuários</text>
    <text x="500" y="23" font-family="system-ui" font-size="11" font-weight="600" fill="#e2e8f0">Pedidos</text>
    <text x="600" y="23" font-family="system-ui" font-size="11" font-weight="600" fill="#e2e8f0">Status</text>
    <text x="700" y="23" font-family="system-ui" font-size="11" font-weight="600" fill="#e2e8f0">Ações</text>
  </g>
  
  <g transform="translate(30, 220)">
    <rect width="740" height="45" fill="#1e293b"/>
    <text x="25" y="28" font-family="system-ui" font-size="13" font-weight="600" fill="white">TechCorp Brasil</text>
    <text x="250" y="28" font-family="system-ui" font-size="12" fill="#94a3b8">12.345.678/0001-90</text>
    <text x="400" y="28" font-family="system-ui" font-size="13" fill="#e2e8f0">2.450</text>
    <text x="500" y="28" font-family="system-ui" font-size="13" fill="#e2e8f0">1.234</text>
    <rect x="590" y="12" width="60" height="22" rx="11" fill="#166534"/>
    <text x="620" y="27" font-family="system-ui" font-size="10" fill="#dcfce7" text-anchor="middle">Ativa</text>
    <text x="700" y="28" font-family="system-ui" font-size="12" fill="#f59e0b">Gerenciar</text>
    <line x1="0" y1="45" x2="740" y2="45" stroke="#334155" stroke-width="1"/>
  </g>
  
  <g transform="translate(30, 265)">
    <rect width="740" height="45" fill="#0f172a"/>
    <text x="25" y="28" font-family="system-ui" font-size="13" font-weight="600" fill="white">Indústrias ABC</text>
    <text x="250" y="28" font-family="system-ui" font-size="12" fill="#94a3b8">98.765.432/0001-10</text>
    <text x="400" y="28" font-family="system-ui" font-size="13" fill="#e2e8f0">890</text>
    <text x="500" y="28" font-family="system-ui" font-size="13" fill="#e2e8f0">456</text>
    <rect x="590" y="12" width="60" height="22" rx="11" fill="#166534"/>
    <text x="620" y="27" font-family="system-ui" font-size="10" fill="#dcfce7" text-anchor="middle">Ativa</text>
    <text x="700" y="28" font-family="system-ui" font-size="12" fill="#f59e0b">Gerenciar</text>
    <line x1="0" y1="45" x2="740" y2="45" stroke="#334155" stroke-width="1"/>
  </g>
  
  <g transform="translate(30, 310)">
    <rect width="740" height="45" fill="#1e293b"/>
    <text x="25" y="28" font-family="system-ui" font-size="13" font-weight="600" fill="white">Startup XYZ</text>
    <text x="250" y="28" font-family="system-ui" font-size="12" fill="#94a3b8">11.222.333/0001-44</text>
    <text x="400" y="28" font-family="system-ui" font-size="13" fill="#e2e8f0">150</text>
    <text x="500" y="28" font-family="system-ui" font-size="13" fill="#e2e8f0">89</text>
    <rect x="590" y="12" width="60" height="22" rx="11" fill="#a16207"/>
    <text x="620" y="27" font-family="system-ui" font-size="10" fill="#fef3c7" text-anchor="middle">Trial</text>
    <text x="700" y="28" font-family="system-ui" font-size="12" fill="#f59e0b">Gerenciar</text>
  </g>
  
  <!-- Add company button -->
  <g transform="translate(30, 380)">
    <rect width="180" height="45" rx="10" fill="url(#accent)"/>
    <text x="90" y="29" font-family="system-ui" font-size="13" font-weight="600" fill="#1e293b" text-anchor="middle">• Nova Empresa</text>
  </g>
</svg>