<svg xmlns="http://www.w3.org/2000/svg" viewBox="0 0 800 450">
  <defs>
    <linearGradient id="bg8" x1="0%" y1="0%" x2="100%" y2="100%">
      <stop offset="0%" style="stop-color:#f0fdf4"/>
      <stop offset="100%" style="stop-color:#dcfce7"/>
    </linearGradient>
  </defs>
  
  <!-- Background -->
  <rect width="800" height="450" fill="url(#bg8)"/>
  
  <!-- Header -->
  <rect x="0" y="0" width="800" height="60" fill="#15803d"/>
  <text x="30" y="38" font-family="system-ui" font-size="20" font-weight="bold" fill="white">=e Gestão de Usuários</text>
  <text x="770" y="38" font-family="system-ui" font-size="14" fill="#86efac" text-anchor="end">Gestor</text>
  
  <!-- Actions bar -->
  <g transform="translate(30, 80)">
    <rect width="250" height="40" rx="8" fill="white" stroke="#86efac" stroke-width="1"/>
    <text x="15" y="26" font-family="system-ui" font-size="13" fill="#64748b">= Buscar colaborador...</text>
    
    <rect x="270" y="0" width="150" height="40" rx="8" fill="#22c55e"/>
    <text x="345" y="26" font-family="system-ui" font-size="13" font-weight="600" fill="white" text-anchor="middle">• Adicionar</text>
    
    <rect x="430" y="0" width="150" height="40" rx="8" fill="white" stroke="#22c55e" stroke-width="1"/>
    <text x="505" y="26" font-family="system-ui" font-size="13" fill="#15803d" text-anchor="middle">=Ê Importar Excel</text>
    
    <rect x="590" y="0" width="140" height="40" rx="8" fill="white" stroke="#22c55e" stroke-width="1"/>
    <text x="660" y="26" font-family="system-ui" font-size="13" fill="#15803d" text-anchor="middle">=° Creditar</text>
  </g>
  
  <!-- User cards -->
  <g transform="translate(30, 140)">
    <!-- User 1 -->
    <rect width="230" height="130" rx="12" fill="white" filter="drop-shadow(0 2px 6px rgba(0,0,0,0.08))"/>
    <circle cx="40" cy="45" r="25" fill="#dbeafe"/>
    <text x="40" y="52" font-family="system-ui" font-size="20" text-anchor="middle">=d</text>
    <text x="80" y="40" font-family="system-ui" font-size="14" font-weight="600" fill="#1e293b">João Silva</text>
    <text x="80" y="58" font-family="system-ui" font-size="11" fill="#64748b">joao@empresa.com</text>
    <text x="20" y="90" font-family="system-ui" font-size="12" fill="#475569">=° 2.500 pts</text>
    <rect x="110" y="78" width="50" height="20" rx="10" fill="#fef3c7"/>
    <text x="135" y="92" font-family="system-ui" font-size="10" fill="#a16207" text-anchor="middle">>G Ouro</text>
    <rect x="165" y="78" width="50" height="20" rx="10" fill="#dbeafe"/>
    <text x="190" y="92" font-family="system-ui" font-size="10" fill="#1d4ed8" text-anchor="middle">Vendas</text>
    <text x="115" y="120" font-family="system-ui" font-size="11" fill="#22c55e" text-anchor="middle">Ativo " 5 pedidos</text>
    
    <!-- User 2 -->
    <g transform="translate(250, 0)">
      <rect width="230" height="130" rx="12" fill="white" filter="drop-shadow(0 2px 6px rgba(0,0,0,0.08))"/>
      <circle cx="40" cy="45" r="25" fill="#fce7f3"/>
      <text x="40" y="52" font-family="system-ui" font-size="20" text-anchor="middle">=i</text>
      <text x="80" y="40" font-family="system-ui" font-size="14" font-weight="600" fill="#1e293b">Maria Costa</text>
      <text x="80" y="58" font-family="system-ui" font-size="11" fill="#64748b">maria@empresa.com</text>
      <text x="20" y="90" font-family="system-ui" font-size="12" fill="#475569">=° 4.200 pts</text>
      <rect x="110" y="78" width="50" height="20" rx="10" fill="#e9d5ff"/>
      <text x="135" y="92" font-family="system-ui" font-size="10" fill="#7c3aed" text-anchor="middle">=Ž Platina</text>
      <rect x="165" y="78" width="50" height="20" rx="10" fill="#dcfce7"/>
      <text x="190" y="92" font-family="system-ui" font-size="10" fill="#166534" text-anchor="middle">TI</text>
      <text x="115" y="120" font-family="system-ui" font-size="11" fill="#22c55e" text-anchor="middle">Ativo " 12 pedidos</text>
    </g>
    
    <!-- User 3 -->
    <g transform="translate(500, 0)">
      <rect width="230" height="130" rx="12" fill="white" filter="drop-shadow(0 2px 6px rgba(0,0,0,0.08))"/>
      <circle cx="40" cy="45" r="25" fill="#dbeafe"/>
      <text x="40" y="52" font-family="system-ui" font-size="20" text-anchor="middle">=h</text>
      <text x="80" y="40" font-family="system-ui" font-size="14" font-weight="600" fill="#1e293b">Pedro Oliveira</text>
      <text x="80" y="58" font-family="system-ui" font-size="11" fill="#64748b">pedro@empresa.com</text>
      <text x="20" y="90" font-family="system-ui" font-size="12" fill="#475569">=° 800 pts</text>
      <rect x="110" y="78" width="50" height="20" rx="10" fill="#fef3c7"/>
      <text x="135" y="92" font-family="system-ui" font-size="10" fill="#a16207" text-anchor="middle">>H Prata</text>
      <rect x="165" y="78" width="50" height="20" rx="10" fill="#fee2e2"/>
      <text x="190" y="92" font-family="system-ui" font-size="10" fill="#dc2626" text-anchor="middle">Novo</text>
      <text x="115" y="120" font-family="system-ui" font-size="11" fill="#22c55e" text-anchor="middle">Ativo " 1 pedido</text>
    </g>
  </g>
  
  <!-- Stats -->
  <g transform="translate(30, 300)">
    <rect width="740" height="120" rx="12" fill="white" filter="drop-shadow(0 2px 6px rgba(0,0,0,0.08))"/>
    <text x="25" y="35" font-family="system-ui" font-size="14" font-weight="600" fill="#1e293b">=Ê Resumo de Usuários</text>
    
    <g transform="translate(25, 55)">
      <rect width="160" height="50" rx="8" fill="#f0fdf4"/>
      <text x="15" y="22" font-family="system-ui" font-size="11" fill="#64748b">Total de Usuários</text>
      <text x="15" y="42" font-family="system-ui" font-size="18" font-weight="bold" fill="#15803d">456</text>
    </g>
    
    <g transform="translate(200, 55)">
      <rect width="160" height="50" rx="8" fill="#eff6ff"/>
      <text x="15" y="22" font-family="system-ui" font-size="11" fill="#64748b">Ativos (30 dias)</text>
      <text x="15" y="42" font-family="system-ui" font-size="18" font-weight="bold" fill="#2563eb">389</text>
    </g>
    
    <g transform="translate(375, 55)">
      <rect width="160" height="50" rx="8" fill="#fef3c7"/>
      <text x="15" y="22" font-family="system-ui" font-size="11" fill="#64748b">Pontos Distribuídos</text>
      <text x="15" y="42" font-family="system-ui" font-size="18" font-weight="bold" fill="#a16207">125K</text>
    </g>
    
    <g transform="translate(550, 55)">
      <rect width="160" height="50" rx="8" fill="#fce7f3"/>
      <text x="15" y="22" font-family="system-ui" font-size="11" fill="#64748b">Engajamento</text>
      <text x="15" y="42" font-family="system-ui" font-size="18" font-weight="bold" fill="#be185d">85%</text>
    </g>
  </g>
</svg>