<svg xmlns="http://www.w3.org/2000/svg" viewBox="0 0 800 450">
  <defs>
    <linearGradient id="bg4" x1="0%" y1="0%" x2="100%" y2="100%">
      <stop offset="0%" style="stop-color:#eff6ff"/>
      <stop offset="100%" style="stop-color:#dbeafe"/>
    </linearGradient>
    <linearGradient id="blue" x1="0%" y1="0%" x2="100%" y2="100%">
      <stop offset="0%" style="stop-color:#3b82f6"/>
      <stop offset="100%" style="stop-color:#2563eb"/>
    </linearGradient>
  </defs>
  
  <!-- Background -->
  <rect width="800" height="450" fill="url(#bg4)"/>
  
  <!-- Header -->
  <rect x="0" y="0" width="800" height="60" fill="#1e40af"/>
  <text x="30" y="38" font-family="system-ui" font-size="20" font-weight="bold" fill="white">=Ò Loja de Benefícios</text>
  <rect x="600" y="15" width="170" height="30" rx="15" fill="#3b82f6"/>
  <text x="685" y="36" font-family="system-ui" font-size="13" font-weight="600" fill="white" text-anchor="middle">=° 2.500 pts</text>
  <text x="770" y="38" font-family="system-ui" font-size="14" fill="#93c5fd" text-anchor="end">Membro</text>
  
  <!-- Search and filters -->
  <g transform="translate(30, 80)">
    <rect width="300" height="40" rx="8" fill="white" stroke="#bfdbfe" stroke-width="1"/>
    <text x="15" y="26" font-family="system-ui" font-size="14" fill="#64748b">= Buscar produtos...</text>
    
    <g transform="translate(320, 0)">
      <rect width="100" height="40" rx="8" fill="white" stroke="#bfdbfe" stroke-width="1"/>
      <text x="50" y="26" font-family="system-ui" font-size="12" fill="#475569" text-anchor="middle">Categoria ¼</text>
    </g>
    
    <g transform="translate(430, 0)">
      <rect width="80" height="40" rx="8" fill="white" stroke="#bfdbfe" stroke-width="1"/>
      <text x="40" y="26" font-family="system-ui" font-size="12" fill="#475569" text-anchor="middle">Preço ¼</text>
    </g>
  </g>
  
  <!-- Products grid -->
  <g transform="translate(30, 140)">
    <!-- Product 1 -->
    <g>
      <rect width="175" height="240" rx="12" fill="white" filter="drop-shadow(0 3px 8px rgba(0,0,0,0.08))"/>
      <rect x="10" y="10" width="155" height="110" rx="8" fill="#eff6ff"/>
      <text x="87" y="70" font-family="system-ui" font-size="40" text-anchor="middle">=U</text>
      <text x="15" y="140" font-family="system-ui" font-size="13" font-weight="600" fill="#1e293b">Camiseta Premium</text>
      <text x="15" y="158" font-family="system-ui" font-size="11" fill="#64748b">Vestuário</text>
      <text x="15" y="185" font-family="system-ui" font-size="18" font-weight="bold" fill="#2563eb">250 pts</text>
      <rect x="15" y="200" width="145" height="30" rx="6" fill="url(#blue)"/>
      <text x="87" y="221" font-family="system-ui" font-size="12" font-weight="600" fill="white" text-anchor="middle">Adicionar =Ò</text>
    </g>
    
    <!-- Product 2 -->
    <g transform="translate(190, 0)">
      <rect width="175" height="240" rx="12" fill="white" filter="drop-shadow(0 3px 8px rgba(0,0,0,0.08))"/>
      <rect x="10" y="10" width="155" height="110" rx="8" fill="#eff6ff"/>
      <text x="87" y="70" font-family="system-ui" font-size="40" text-anchor="middle"><§</text>
      <text x="15" y="140" font-family="system-ui" font-size="13" font-weight="600" fill="#1e293b">Fone Bluetooth Pro</text>
      <text x="15" y="158" font-family="system-ui" font-size="11" fill="#64748b">Eletrônicos</text>
      <text x="15" y="185" font-family="system-ui" font-size="18" font-weight="bold" fill="#2563eb">600 pts</text>
      <rect x="15" y="200" width="145" height="30" rx="6" fill="url(#blue)"/>
      <text x="87" y="221" font-family="system-ui" font-size="12" font-weight="600" fill="white" text-anchor="middle">Adicionar =Ò</text>
    </g>
    
    <!-- Product 3 -->
    <g transform="translate(380, 0)">
      <rect width="175" height="240" rx="12" fill="white" filter="drop-shadow(0 3px 8px rgba(0,0,0,0.08))"/>
      <rect x="10" y="10" width="155" height="110" rx="8" fill="#eff6ff"/>
      <text x="87" y="70" font-family="system-ui" font-size="40" text-anchor="middle"><’</text>
      <text x="15" y="140" font-family="system-ui" font-size="13" font-weight="600" fill="#1e293b">Mochila Executive</text>
      <text x="15" y="158" font-family="system-ui" font-size="11" fill="#64748b">Acessórios</text>
      <text x="15" y="185" font-family="system-ui" font-size="18" font-weight="bold" fill="#2563eb">800 pts</text>
      <rect x="15" y="200" width="145" height="30" rx="6" fill="url(#blue)"/>
      <text x="87" y="221" font-family="system-ui" font-size="12" font-weight="600" fill="white" text-anchor="middle">Adicionar =Ò</text>
    </g>
    
    <!-- Product 4 -->
    <g transform="translate(570, 0)">
      <rect width="175" height="240" rx="12" fill="white" filter="drop-shadow(0 3px 8px rgba(0,0,0,0.08))"/>
      <rect x="10" y="10" width="155" height="110" rx="8" fill="#eff6ff"/>
      <text x="87" y="70" font-family="system-ui" font-size="40" text-anchor="middle"></text>
      <text x="15" y="140" font-family="system-ui" font-size="13" font-weight="600" fill="#1e293b">Caneca Térmica</text>
      <text x="15" y="158" font-family="system-ui" font-size="11" fill="#64748b">Casa</text>
      <text x="15" y="185" font-family="system-ui" font-size="18" font-weight="bold" fill="#2563eb">180 pts</text>
      <rect x="15" y="200" width="145" height="30" rx="6" fill="url(#blue)"/>
      <text x="87" y="221" font-family="system-ui" font-size="12" font-weight="600" fill="white" text-anchor="middle">Adicionar =Ò</text>
    </g>
  </g>
  
  <!-- Cart button -->
  <g transform="translate(680, 395)">
    <circle cx="40" cy="25" r="30" fill="#2563eb" filter="drop-shadow(0 4px 8px rgba(37,99,235,0.4))"/>
    <text x="40" y="32" font-family="system-ui" font-size="20" text-anchor="middle">=Ò</text>
    <circle cx="55" cy="10" r="12" fill="#ef4444"/>
    <text x="55" y="15" font-family="system-ui" font-size="11" font-weight="bold" fill="white" text-anchor="middle">3</text>
  </g>
</svg>