<svg xmlns="http://www.w3.org/2000/svg" viewBox="0 0 400 300">
  <defs>
    <linearGradient id="dayoffBg" x1="0%" y1="0%" x2="100%" y2="100%">
      <stop offset="0%" style="stop-color:#10B981"/>
      <stop offset="50%" style="stop-color:#059669"/>
      <stop offset="100%" style="stop-color:#0891B2"/>
    </linearGradient>
  </defs>
  <rect width="400" height="300" rx="20" fill="url(#dayoffBg)"/>
  <rect x="20" y="20" width="360" height="260" rx="15" fill="white" fill-opacity="0.1"/>
  <g transform="translate(160, 45)">
    <circle cx="40" cy="25" r="20" fill="#FCD34D"/>
    <path d="M40 5 L40 -5 M55 10 L62 3 M60 25 L70 25 M55 40 L62 47 M40 45 L40 55 M25 40 L18 47 M20 25 L10 25 M25 10 L18 3" stroke="#FCD34D" stroke-width="3" stroke-linecap="round"/>
    <path d="M20 50 Q40 70 60 50" stroke="white" stroke-width="8" fill="none" stroke-linecap="round"/>
    <path d="M10 55 Q40 80 70 55" stroke="white" stroke-width="8" fill="none" stroke-linecap="round"/>
  </g>
  <text x="200" y="155" font-family="Arial, sans-serif" font-size="28" font-weight="bold" fill="white" text-anchor="middle">Day Off</text>
  <text x="200" y="185" font-family="Arial, sans-serif" font-size="14" fill="white" fill-opacity="0.9" text-anchor="middle">Folga Remunerada</text>
  <rect x="100" y="205" width="200" height="55" rx="10" fill="white"/>
  <text x="200" y="228" font-family="Arial, sans-serif" font-size="12" fill="#10B981" text-anchor="middle">Vale</text>
  <text x="200" y="250" font-family="Arial, sans-serif" font-size="18" font-weight="bold" fill="#10B981" text-anchor="middle">1 DIA DE FOLGA</text>
  <text x="200" y="280" font-family="Arial, sans-serif" font-size="12" fill="white" fill-opacity="0.8" text-anchor="middle">Descanso Merecido</text>
</svg>
